<svg width="173" height="82" viewBox="0 0 173 82" fill="none" xmlns="http://www.w3.org/2000/svg">
    <path d="M79.1668 35.7028C83.4097 37.9598 83.4097 44.0402 79.1668 46.2972L31.1928 71.8165C27.1964 73.9424 22.375 71.046 22.375 66.5193V15.4807C22.375 10.954 27.1964 8.05764 31.1928 10.1835L79.1668 35.7028Z" fill="#F10000"/>
    <path d="M31.863 53V27.8H36.687L47.415 45.584H44.859L55.407 27.8H60.195L60.267 53H54.795L54.759 36.188H55.767L47.343 50.336H44.715L36.111 36.188H37.335V53H31.863ZM74.0218 53.288C72.4138 53.288 70.9738 52.976 69.7018 52.352C68.4538 51.728 67.4818 50.78 66.7858 49.508C66.0898 48.212 65.7418 46.568 65.7418 44.576V33.632H71.3578V43.748C71.3578 45.356 71.6938 46.544 72.3658 47.312C73.0618 48.056 74.0338 48.428 75.2818 48.428C76.1458 48.428 76.9138 48.248 77.5858 47.888C78.2578 47.504 78.7858 46.928 79.1698 46.16C79.5538 45.368 79.7458 44.384 79.7458 43.208V33.632H85.3618V53H80.0338V47.672L81.0058 49.22C80.3578 50.564 79.3978 51.584 78.1258 52.28C76.8778 52.952 75.5098 53.288 74.0218 53.288ZM90.5647 53V26.288H96.1807V53H90.5647ZM110.719 53.288C108.439 53.288 106.663 52.712 105.391 51.56C104.119 50.384 103.483 48.644 103.483 46.34V29.348H109.099V46.268C109.099 47.084 109.315 47.72 109.747 48.176C110.179 48.608 110.767 48.824 111.511 48.824C112.399 48.824 113.155 48.584 113.779 48.104L115.291 52.064C114.715 52.472 114.019 52.784 113.203 53C112.411 53.192 111.583 53.288 110.719 53.288ZM100.495 38.384V34.064H113.923V38.384H100.495ZM118.706 53V33.2C118.706 31.016 119.354 29.276 120.65 27.98C121.946 26.66 123.794 26 126.194 26C127.01 26 127.79 26.084 128.534 26.252C129.302 26.42 129.95 26.684 130.478 27.044L129.002 31.112C128.69 30.896 128.342 30.728 127.958 30.608C127.574 30.488 127.166 30.428 126.734 30.428C125.918 30.428 125.282 30.668 124.826 31.148C124.394 31.604 124.178 32.3 124.178 33.236V35.036L124.322 37.448V53H118.706ZM115.718 38.384V34.064H129.146V38.384H115.718ZM132.314 53V26.288H137.93V53H132.314ZM143.123 53V33.632H148.739V53H143.123ZM145.931 30.932C144.899 30.932 144.059 30.632 143.411 30.032C142.763 29.432 142.439 28.688 142.439 27.8C142.439 26.912 142.763 26.168 143.411 25.568C144.059 24.968 144.899 24.668 145.931 24.668C146.963 24.668 147.803 24.956 148.451 25.532C149.099 26.084 149.423 26.804 149.423 27.692C149.423 28.628 149.099 29.408 148.451 30.032C147.827 30.632 146.987 30.932 145.931 30.932ZM151.503 53L160.179 41.624L160.071 44.72L151.755 33.632H158.055L163.311 40.868L160.935 40.94L166.371 33.632H172.347L163.995 44.612V41.588L172.635 53H166.263L160.755 45.296L163.095 45.62L157.623 53H151.503Z" fill="white"/>
</svg>
